<?xml version="1.0" encoding="iso-8859-1"?>
<!-- Generator: Adobe Illustrator 19.0.0, SVG Export Plug-In . SVG Version: 6.00 Build 0)  -->
<svg version="1.1" id="Layer_1" xmlns="http://www.w3.org/2000/svg" xmlns:xlink="http://www.w3.org/1999/xlink" x="0px" y="0px"
	 viewBox="0 0 512 512" style="enable-background:new 0 0 512 512;" xml:space="preserve">
<g>
	<g>
		<path d="M256,0C114.842,0,0,114.842,0,256c0,141.157,114.842,256,256,256s256-114.843,256-256C512,114.842,397.158,0,256,0z
			 M232.727,116.364c0-12.853,10.42-23.273,23.273-23.273c12.853,0,23.273,10.42,23.273,23.273v99.739
			c0,12.853-10.42,23.273-23.273,23.273c-12.853,0-23.273-10.42-23.273-23.273V116.364z M256,418.909
			c-81.579,0-147.948-66.369-147.948-147.948c0-36.357,13.312-71.309,37.485-98.425c8.552-9.595,23.263-10.437,32.858-1.884
			c9.595,8.554,10.439,23.265,1.885,32.858c-16.561,18.578-25.682,42.532-25.682,67.451c0,55.912,45.489,101.402,101.402,101.402
			s101.402-45.49,101.402-101.402c-0.002-24.917-9.123-48.871-25.684-67.449c-8.553-9.595-7.708-24.306,1.887-32.86
			c9.593-8.552,24.305-7.709,32.86,1.887c24.169,27.114,37.482,62.067,37.483,98.42C403.948,352.54,337.579,418.909,256,418.909z"/>
	</g>
</g>
<g>
</g>
<g>
</g>
<g>
</g>
<g>
</g>
<g>
</g>
<g>
</g>
<g>
</g>
<g>
</g>
<g>
</g>
<g>
</g>
<g>
</g>
<g>
</g>
<g>
</g>
<g>
</g>
<g>
</g>
</svg>
